<svg width="90" height="90" viewBox="0 0 90 90" fill="none" xmlns="http://www.w3.org/2000/svg">
<path d="M44.0617 11.25C45.4856 11.25 46.6628 12.3075 46.8491 13.6803L46.875 14.0619L46.8795 41.25H74.0786C75.6319 41.25 76.8911 42.5093 76.8911 44.0625C76.8911 45.4864 75.8329 46.6631 74.4604 46.8495L74.0786 46.875H46.8795L46.887 74.0591C46.8874 75.6124 45.6285 76.8724 44.0753 76.8724C42.6514 76.8724 41.4743 75.8149 41.2879 74.442L41.262 74.0603L41.2545 46.875H14.0707C12.5174 46.875 11.2582 45.6158 11.2582 44.0625C11.2582 42.6386 12.3163 41.4619 13.6891 41.2755L14.0707 41.25H41.2545L41.25 14.0631C41.2496 12.5098 42.5085 11.25 44.0617 11.25Z" fill="#03111B"/>
</svg>
