<svg width="100" height="100" viewBox="0 0 100 100" fill="none" xmlns="http://www.w3.org/2000/svg">
<path d="M50 4.16663C40.935 4.16663 32.0736 6.8547 24.5363 11.8909C16.9991 16.9272 11.1245 24.0854 7.6555 32.4603C4.18649 40.8352 3.27883 50.0508 5.04732 58.9416C6.81581 67.8324 11.181 75.9991 17.5909 82.409C24.0008 88.8189 32.1675 93.1841 41.0583 94.9526C49.9491 96.7211 59.1647 95.8134 67.5396 92.3444C75.9146 88.8754 83.0728 83.0008 88.109 75.4636C93.1452 67.9263 95.8333 59.0649 95.8333 50C95.819 37.8486 90.9855 26.199 82.3932 17.6067C73.8009 9.01442 62.1513 4.18096 50 4.16663ZM50 87.5C42.5832 87.5 35.3329 85.3006 29.1661 81.1801C22.9993 77.0595 18.1928 71.2028 15.3545 64.3506C12.5162 57.4984 11.7736 49.9584 13.2205 42.6841C14.6675 35.4098 18.239 28.7279 23.4835 23.4835C28.7279 18.239 35.4098 14.6675 42.6841 13.2205C49.9584 11.7736 57.4984 12.5162 64.3506 15.3545C71.2028 18.1928 77.0595 22.9992 81.1801 29.1661C85.3006 35.3329 87.5 42.5832 87.5 50C87.4879 59.9419 83.5331 69.4731 76.5031 76.5031C69.4731 83.5331 59.9419 87.4878 50 87.5ZM54.1666 33.3333H45.8333V25H54.1666V33.3333ZM54.1666 75H45.8333V41.6666H54.1666V75Z" fill="#4F4F4F"/>
</svg>
