<svg width="36" height="36" viewBox="0 0 36 36" fill="none" xmlns="http://www.w3.org/2000/svg">
<rect width="36" height="36" rx="5" fill="#E0E0E0"/>
<g clip-path="url(#clip0_41_1888)">
<path d="M16.75 25.5C16.625 25.5 16.5 25.4375 16.4375 25.4375C16.25 25.3125 16.125 25.0625 16.125 24.875V19.4375L10.625 11.5C10.5 11.3125 10.4375 11.0625 10.5625 10.8125C10.6875 10.625 10.875 10.5 11.125 10.5H24.875C25.125 10.5 25.3125 10.625 25.4375 10.8125C25.5625 11 25.5 11.25 25.375 11.4375L19.875 19.4375V23.625C19.875 23.875 19.75 24.0625 19.5 24.1875L17 25.4375C16.9375 25.5 16.875 25.5 16.75 25.5ZM12.3125 11.75L17.25 18.875C17.3125 19 17.375 19.125 17.375 19.25V23.875L18.625 23.25V19.25C18.625 19.125 18.6875 19 18.75 18.875L23.6875 11.75H12.3125Z" fill="#03111B"/>
</g>
<defs>
<clipPath id="clip0_41_1888">
<rect width="15" height="15" fill="white" transform="translate(10.5 10.5)"/>
</clipPath>
</defs>
</svg>
