<svg width="17" height="17" viewBox="0 0 17 17" fill="none" xmlns="http://www.w3.org/2000/svg">
<path d="M12.5404 2.5C13.737 2.5 14.7071 3.47005 14.7071 4.66667V12.3333C14.7071 13.5299 13.737 14.5 12.5404 14.5H4.87376C3.67714 14.5 2.70709 13.5299 2.70709 12.3333V4.66667C2.70709 3.47005 3.67714 2.5 4.87376 2.5H12.5404ZM13.7071 6.16667H3.70709V12.3333C3.70709 12.9777 4.22943 13.5 4.87376 13.5H12.5404C13.1848 13.5 13.7071 12.9777 13.7071 12.3333V6.16667ZM5.87376 10.1667C6.334 10.1667 6.70709 10.5397 6.70709 11C6.70709 11.4603 6.334 11.8333 5.87376 11.8333C5.41352 11.8333 5.04043 11.4603 5.04043 11C5.04043 10.5397 5.41352 10.1667 5.87376 10.1667ZM8.70709 10.1667C9.16736 10.1667 9.54043 10.5397 9.54043 11C9.54043 11.4603 9.16736 11.8333 8.70709 11.8333C8.24683 11.8333 7.87376 11.4603 7.87376 11C7.87376 10.5397 8.24683 10.1667 8.70709 10.1667ZM5.87376 7.5C6.334 7.5 6.70709 7.87307 6.70709 8.33333C6.70709 8.7936 6.334 9.16667 5.87376 9.16667C5.41352 9.16667 5.04043 8.7936 5.04043 8.33333C5.04043 7.87307 5.41352 7.5 5.87376 7.5ZM8.70709 7.5C9.16736 7.5 9.54043 7.87307 9.54043 8.33333C9.54043 8.7936 9.16736 9.16667 8.70709 9.16667C8.24683 9.16667 7.87376 8.7936 7.87376 8.33333C7.87376 7.87307 8.24683 7.5 8.70709 7.5ZM11.5404 7.5C12.0007 7.5 12.3738 7.87307 12.3738 8.33333C12.3738 8.7936 12.0007 9.16667 11.5404 9.16667C11.0802 9.16667 10.7071 8.7936 10.7071 8.33333C10.7071 7.87307 11.0802 7.5 11.5404 7.5ZM12.5404 3.5H4.87376C4.22943 3.5 3.70709 4.02233 3.70709 4.66667V5.16667H13.7071V4.66667C13.7071 4.02233 13.1848 3.5 12.5404 3.5Z" fill="#03111B"/>
</svg>
