<svg width="56" height="55" viewBox="0 0 56 55" fill="none" xmlns="http://www.w3.org/2000/svg">
<path d="M28.2071 4.58337C40.8635 4.58337 51.1238 14.8435 51.1238 27.5C51.1238 40.1565 40.8635 50.4167 28.2071 50.4167C15.5506 50.4167 5.29044 40.1565 5.29044 27.5C5.29044 14.8435 15.5506 4.58337 28.2071 4.58337ZM28.2071 8.02087C17.4491 8.02087 8.72794 16.742 8.72794 27.5C8.72794 38.258 17.4491 46.9792 28.2071 46.9792C38.9651 46.9792 47.6863 38.258 47.6863 27.5C47.6863 16.742 38.9651 8.02087 28.2071 8.02087ZM28.2071 25.7813C29.1563 25.7813 29.9258 25.7813 29.9258 25.7813H37.9467C38.8959 25.7813 39.6654 26.5508 39.6654 27.5C39.6654 28.4492 38.8959 29.2188 37.9467 29.2188H29.9258C29.9258 29.2188 29.1563 29.2188 28.2071 29.2188C27.2579 29.2188 26.4884 29.2188 26.4884 29.2188H18.4675C17.5183 29.2188 16.7488 28.4492 16.7488 27.5C16.7488 26.5508 17.5183 25.7813 18.4675 25.7813H26.4884C26.4884 25.7813 27.2579 25.7813 28.2071 25.7813Z" fill="#03111B"/>
</svg>
