<svg width="21" height="21" viewBox="0 0 21 21" fill="none" xmlns="http://www.w3.org/2000/svg">
<path d="M9.1875 7.875H7.875V15.75H9.1875V7.875Z" fill="#DD1D1D"/>
<path d="M13.125 7.875H11.8125V15.75H13.125V7.875Z" fill="#DD1D1D"/>
<path d="M2.625 3.9375V5.25H3.9375V18.375C3.9375 18.7231 4.07578 19.0569 4.32192 19.3031C4.56806 19.5492 4.9019 19.6875 5.25 19.6875H15.75C16.0981 19.6875 16.4319 19.5492 16.6781 19.3031C16.9242 19.0569 17.0625 18.7231 17.0625 18.375V5.25H18.375V3.9375H2.625ZM5.25 18.375V5.25H15.75V18.375H5.25Z" fill="#DD1D1D"/>
<path d="M13.125 1.3125H7.875V2.625H13.125V1.3125Z" fill="#DD1D1D"/>
</svg>
