<svg width="19" height="19" viewBox="0 0 19 19" fill="none" xmlns="http://www.w3.org/2000/svg">
<g clip-path="url(#clip0_26_365)">
<path d="M10.9724 -0.000330559C10.9649 0.00263819 10.956 0.00709133 10.9486 0.0115444L0.308616 2.03029C0.127523 2.06444 -0.00310226 2.22475 -0.000133512 2.41029V16.589C-0.00310226 16.7746 0.127523 16.9349 0.308616 16.969L10.9486 18.9878C11.0585 19.0086 11.1728 18.9804 11.2603 18.9091C11.3464 18.8379 11.3984 18.7325 11.3999 18.6197V16.7197H17.8599C18.2755 16.7197 18.6199 16.3753 18.6199 15.9597V3.03967C18.6199 2.62404 18.2755 2.27967 17.8599 2.27967H11.3999V0.379669C11.4014 0.269826 11.3539 0.165919 11.2722 0.0931852C11.1906 0.0204507 11.0807 -0.01369 10.9724 -0.000330559ZM10.6399 0.830919V2.54092C10.6176 2.61514 10.6176 2.69233 10.6399 2.76654V16.2684C10.6295 16.3189 10.6295 16.3723 10.6399 16.4228V18.1684L0.759866 16.2803V2.71904L10.6399 0.830919ZM11.3999 3.03967H17.8599V15.9597H11.3999V14.0597H16.7199V13.2997H11.3999V11.0197H16.7199V10.2597H11.3999V8.35967H16.7199V7.59967H11.3999V5.69967H16.7199V4.93967H11.3999V3.03967ZM1.75737 5.94904L3.20612 13.0503H4.63112L5.56924 8.50217C5.61229 8.29287 5.65237 8.01826 5.67612 7.69467H5.68799C5.69838 7.98858 5.72213 8.26467 5.77112 8.50217L6.68549 13.0503H8.06299L9.52362 5.94904H8.26487L7.50487 10.6872C7.46034 10.9544 7.43213 11.2215 7.42174 11.4828H7.40987C7.38463 11.1488 7.3594 10.898 7.32674 10.7228L6.42424 5.94904H5.09424L4.09674 10.6634C4.03291 10.9647 3.98838 11.2408 3.97799 11.4947H3.95424C3.9394 11.1547 3.91713 10.8772 3.88299 10.6753L3.11112 5.94904H1.75737Z" fill="#007AD3"/>
</g>
<defs>
<clipPath id="clip0_26_365">
<rect width="19" height="19" fill="white"/>
</clipPath>
</defs>
</svg>
