<svg width="30" height="30" viewBox="0 0 30 30" fill="none" xmlns="http://www.w3.org/2000/svg">
<path d="M5.49631 5.69224L5.58709 5.58709C5.91993 5.25425 6.44075 5.224 6.80776 5.49631L6.91291 5.58709L15 13.6738L23.0871 5.58709C23.4532 5.22098 24.0468 5.22098 24.4129 5.58709C24.779 5.9532 24.779 6.5468 24.4129 6.91291L16.3263 15L24.4129 23.0871C24.7458 23.4199 24.776 23.9408 24.5036 24.3077L24.4129 24.4129C24.0801 24.7458 23.5592 24.776 23.1923 24.5036L23.0871 24.4129L15 16.3263L6.91291 24.4129C6.5468 24.779 5.9532 24.779 5.58709 24.4129C5.22098 24.0468 5.22098 23.4532 5.58709 23.0871L13.6738 15L5.58709 6.91291C5.25425 6.58008 5.224 6.05925 5.49631 5.69224Z" fill="#007AD3"/>
</svg>
