<svg width="30" height="30" viewBox="0 0 30 30" fill="none" xmlns="http://www.w3.org/2000/svg">
<path d="M13.4159 5.26187C13.7908 4.90475 14.3843 4.91925 14.7414 5.29412C15.0985 5.669 15.084 6.2625 14.7091 6.61962L6.895 14.0627L25.3125 14.0627C25.8303 14.0627 26.25 14.4824 26.25 15.0002C26.25 15.518 25.8303 15.9377 25.3125 15.9377L6.8945 15.9377L14.7091 23.3812C15.084 23.7383 15.0985 24.3317 14.7414 24.7067C14.3843 25.0816 13.7908 25.096 13.4159 24.7389L4.14225 15.9055C3.93088 15.7042 3.806 15.4475 3.76738 15.1805C3.756 15.1221 3.75 15.0619 3.75 15.0002C3.75 14.9381 3.756 14.8774 3.76762 14.8186C3.8065 14.5522 3.93138 14.2961 4.14225 14.0952L13.4159 5.26187Z" fill="white"/>
</svg>
