<svg width="30" height="30" viewBox="0 0 30 30" fill="none" xmlns="http://www.w3.org/2000/svg">
<path d="M16.5841 5.26187C16.2092 4.90475 15.6157 4.91925 15.2586 5.29412C14.9015 5.669 14.916 6.2625 15.2909 6.61962L23.105 14.0627L4.6875 14.0627C4.16974 14.0627 3.75 14.4824 3.75 15.0002C3.75 15.518 4.16974 15.9377 4.6875 15.9377L23.1055 15.9377L15.2909 23.3812C14.916 23.7383 14.9015 24.3317 15.2586 24.7067C15.6157 25.0816 16.2092 25.096 16.5841 24.7389L25.8577 15.9055C26.0691 15.7042 26.194 15.4475 26.2326 15.1805C26.244 15.1221 26.25 15.0619 26.25 15.0002C26.25 14.9381 26.244 14.8774 26.2324 14.8186C26.1935 14.5522 26.0686 14.2961 25.8577 14.0952L16.5841 5.26187Z" fill="#007AD3"/>
</svg>
