<svg width="36" height="36" viewBox="0 0 36 36" fill="none" xmlns="http://www.w3.org/2000/svg">
<path fill-rule="evenodd" clip-rule="evenodd" d="M9.375 4.5C6.6826 4.5 4.5 6.6826 4.5 9.375V26.625C4.5 29.3173 6.6826 31.5 9.375 31.5H26.625C29.3173 31.5 31.5 29.3173 31.5 26.625V9.375C31.5 6.6826 29.3173 4.5 26.625 4.5H9.375ZM9.375 6.75C7.92525 6.75 6.75 7.92525 6.75 9.375V26.625C6.75 28.0747 7.92525 29.25 9.375 29.25H26.625C28.0747 29.25 29.25 28.0747 29.25 26.625V9.375C29.25 7.92525 28.0747 6.75 26.625 6.75H9.375Z" fill="#03111B" fill-opacity="0.7"/>
<path d="M24.4203 14.6705C24.8596 14.2312 24.8596 13.5189 24.4203 13.0795C23.9809 12.6402 23.2687 12.6402 22.8294 13.0795L16.1248 19.7836L13.9146 17.5736C13.4753 17.1342 12.763 17.1342 12.3236 17.5736C11.8843 18.0128 11.8843 18.7251 12.3236 19.1644L15.3294 22.1701C15.7686 22.6095 16.4809 22.6095 16.9203 22.1701L20.6703 18.4203L24.4203 14.6705Z" fill="#129E44"/>
</svg>
