<svg width="36" height="36" viewBox="0 0 36 36" fill="none" xmlns="http://www.w3.org/2000/svg">
<path d="M4.5 9.375C4.5 6.68261 6.68261 4.5 9.375 4.5H26.625C29.3174 4.5 31.5 6.68261 31.5 9.375V26.625C31.5 29.3174 29.3174 31.5 26.625 31.5H9.375C6.68261 31.5 4.5 29.3174 4.5 26.625V9.375ZM9.375 6.75C7.92525 6.75 6.75 7.92525 6.75 9.375V26.625C6.75 28.0748 7.92525 29.25 9.375 29.25H26.625C28.0748 29.25 29.25 28.0748 29.25 26.625V9.375C29.25 7.92525 28.0748 6.75 26.625 6.75H9.375Z" fill="#03111B" fill-opacity="0.7"/>
</svg>
